<svg width="142" height="142" viewBox="0 0 142 142" fill="none" xmlns="http://www.w3.org/2000/svg">
<circle cx="71" cy="71" r="71" fill="#7E6868"/>
<circle cx="71.1983" cy="71.1983" r="52.1592" fill="#B1A293"/>
<path d="M75.2539 5.38801V15.5698H73.3945L68.9649 9.16144H68.8903V15.5698H66.7376V5.38801H68.6268L73.0217 11.7914H73.1112V5.38801H75.2539Z" fill="#00090F"/>
<path d="M75.5979 130.087C75.5582 129.686 75.3875 129.375 75.0859 129.153C74.7842 128.931 74.3749 128.819 73.8579 128.819C73.5066 128.819 73.2099 128.869 72.968 128.969C72.726 129.065 72.5404 129.199 72.4111 129.371C72.2852 129.544 72.2222 129.739 72.2222 129.958C72.2156 130.14 72.2537 130.299 72.3366 130.435C72.4227 130.571 72.5404 130.689 72.6896 130.788C72.8387 130.884 73.011 130.969 73.2066 131.042C73.4021 131.111 73.611 131.171 73.833 131.221L74.7478 131.44C75.1919 131.539 75.5996 131.672 75.9708 131.837C76.342 132.003 76.6635 132.207 76.9353 132.449C77.2071 132.691 77.4175 132.976 77.5667 133.304C77.7191 133.632 77.797 134.008 77.8003 134.432C77.797 135.056 77.6379 135.596 77.3231 136.053C77.0115 136.507 76.5608 136.86 75.9708 137.112C75.3842 137.361 74.6765 137.485 73.8479 137.485C73.026 137.485 72.3101 137.359 71.7002 137.107C71.0937 136.855 70.6197 136.482 70.2783 135.989C69.9403 135.491 69.7629 134.877 69.7464 134.144H71.8295C71.8527 134.485 71.9504 134.77 72.1228 134.999C72.2985 135.225 72.5321 135.395 72.8238 135.511C73.1188 135.624 73.4519 135.68 73.8231 135.68C74.1877 135.68 74.5042 135.627 74.7726 135.521C75.0444 135.415 75.2549 135.268 75.404 135.079C75.5532 134.89 75.6278 134.673 75.6278 134.427C75.6278 134.199 75.5598 134.007 75.4239 133.851C75.2914 133.695 75.0958 133.562 74.8373 133.453C74.5821 133.344 74.2689 133.244 73.8976 133.155L72.789 132.876C71.9306 132.667 71.2528 132.341 70.7556 131.897C70.2584 131.453 70.0115 130.855 70.0148 130.102C70.0115 129.486 70.1756 128.947 70.507 128.486C70.8418 128.026 71.3008 127.666 71.8842 127.408C72.4675 127.149 73.1304 127.02 73.8728 127.02C74.6285 127.02 75.288 127.149 75.8515 127.408C76.4182 127.666 76.8591 128.026 77.1739 128.486C77.4888 128.947 77.6512 129.481 77.6611 130.087H75.5979Z" fill="#00090F"/>
<path d="M127.889 76.257V66.0752H134.75V67.85H130.042V70.2762H134.397V72.051H130.042V74.4821H134.77V76.257H127.889Z" fill="#00090F"/>
<path d="M3.85688 76.257L0.943526 66.0752H3.29509L4.98046 73.1497H5.06497L6.92435 66.0752H8.93784L10.7922 73.1647H10.8817L12.5671 66.0752H14.9187L12.0053 76.257H9.9073L7.96838 69.6H7.88884L5.95489 76.257H3.85688Z" fill="#00090F"/>
<g clip-path="url(#clip0_1_17)">
<path d="M73.2591 69.1767C73.2926 68.5742 73.9954 68.775 73.9954 68.775L79.4672 69.8962L90.7457 74.1967C90.7457 72.0883 90.411 71.854 89.909 71.4859L73.8113 59.9397C73.8113 59.9397 73.3762 54.6519 73.3762 49.9832C73.3762 47.8246 72.3387 43.089 70.9833 43.089C69.6279 43.089 68.5904 47.8915 68.5904 49.9832C68.5904 54.4009 68.1553 59.9397 68.1553 59.9397L52.0576 71.4859C51.4385 71.921 51.2209 72.172 51.2209 74.1967L62.4994 69.8962L67.9545 68.7918C67.9545 68.7918 68.6573 68.5742 68.6908 69.1934C68.7243 69.7958 68.5904 75.2844 69.2096 78.1961C69.2932 78.5809 68.992 78.6144 68.7912 78.8487L64.2062 81.7436C64.0556 81.9109 63.9887 82.3795 63.9887 82.3795L63.905 84.0194L69.8956 82.6137L70.9498 85.425L72.0041 82.6137L77.9947 84.0194L77.911 82.3795C77.9278 82.3795 77.8441 81.9109 77.6935 81.7436L73.1085 78.8487C72.9077 78.6144 72.6065 78.5809 72.6901 78.1961C73.3595 75.2677 73.2256 69.7958 73.2591 69.1767Z" fill="#00090F"/>
</g>
<defs>
<clipPath id="clip0_1_17">
<rect width="42.838" height="42.838" fill="white" transform="translate(49.5811 42.838)"/>
</clipPath>
</defs>
</svg>
