<svg width="33" height="33" viewBox="0 0 33 33" fill="none" xmlns="http://www.w3.org/2000/svg">
<g clip-path="url(#clip0_1_52)">
<path d="M9.47461 17.6601L10.957 14.4117C11.0859 14.1281 11.3566 13.9605 11.666 13.9605C11.9238 13.9605 12.2461 14.0894 12.3879 14.4504L15.7266 22.6875L20.4059 8.63671C20.5348 8.24999 20.8699 8.10819 21.1406 8.10819C21.4113 8.10819 21.7723 8.26288 21.8883 8.68827L24.2988 17.673H30.1512C31.1695 16.1906 31.7109 14.4504 31.7109 12.607C31.7109 10.2094 30.7828 7.9535 29.0813 6.25194C27.3797 4.56327 25.1238 3.62225 22.7262 3.62225C20.4316 3.62225 18.2531 4.48593 16.5773 6.04569L16.5 6.12303L16.4227 6.04569C14.7469 4.48593 12.5684 3.62225 10.2738 3.62225C7.87617 3.62225 5.62031 4.55038 3.91875 6.25194C2.21719 7.94061 1.28906 10.2094 1.28906 12.607C1.28906 14.4375 1.83047 16.1906 2.84883 17.6601H9.47461Z" fill="#EDEBEB"/>
<path d="M23.6929 18.7945C23.3449 18.7945 23.0355 18.5625 22.9453 18.2145L21.0504 11.1504L16.5258 24.75C16.4226 25.0723 16.1261 25.2785 15.791 25.2785C15.5332 25.2785 15.2109 25.1496 15.0691 24.7887L11.6144 16.2809L10.6734 18.3434C10.5445 18.6141 10.2738 18.7945 9.96443 18.7945H3.76404C3.8156 18.8461 3.86716 18.8977 3.91873 18.9492L4.69216 19.7227C4.71794 19.7484 4.74373 19.7742 4.76951 19.7871L15.675 29.0684C15.907 29.2617 16.1906 29.3777 16.5 29.3777C16.7965 29.3777 17.0929 29.2746 17.325 29.0684L28.2304 19.7871C28.2562 19.7613 28.282 19.7484 28.3078 19.7227L29.0812 18.9492C29.1328 18.8977 29.1844 18.8461 29.2359 18.7816L23.6929 18.7945Z" fill="#EDEBEB"/>
</g>
<defs>
<clipPath id="clip0_1_52">
<rect width="33" height="33" fill="white"/>
</clipPath>
</defs>
</svg>
