<svg width="53" height="50" viewBox="0 0 53 50" fill="none" xmlns="http://www.w3.org/2000/svg">
<g clip-path="url(#clip0_1_49)">
<path d="M38.8823 21.8644L27.9032 5.36954C27.7439 5.15849 27.5334 4.98643 27.2893 4.86771C27.0453 4.74899 26.7746 4.68704 26.5 4.68704C26.2254 4.68704 25.9547 4.74899 25.7107 4.86771C25.4666 4.98643 25.2561 5.15849 25.0968 5.36954L14.0684 21.9444C12.5365 24.2754 11.6829 26.9461 11.5938 29.6875C11.5938 33.4171 13.1642 36.994 15.9597 39.6312C18.7552 42.2684 22.5466 43.75 26.5 43.75C30.4534 43.75 34.2448 42.2684 37.0403 39.6312C39.8358 36.994 41.4062 33.4171 41.4062 29.6875C41.311 26.9154 40.4403 24.2165 38.8823 21.8644ZM26.5 40.6258C23.4263 40.6221 20.4797 39.4686 18.3063 37.4182C16.1329 35.3678 14.9102 32.588 14.9062 29.6883C14.9942 27.5028 15.6901 25.3776 16.9241 23.5261L18.4727 21.1999L35.1574 36.9392C34.0736 38.0973 32.7413 39.0249 31.2487 39.6604C29.7562 40.296 28.1375 40.6251 26.5 40.6258Z" fill="#F2F1F1"/>
</g>
<defs>
<clipPath id="clip0_1_49">
<rect width="53" height="50" fill="white"/>
</clipPath>
</defs>
</svg>
