<svg width="69" height="52" viewBox="0 0 69 52" fill="none" xmlns="http://www.w3.org/2000/svg">
<path d="M43.8923 32.6966C49.8974 32.6966 55.5545 30.9815 59.8352 27.879C64.1461 24.7655 66.5058 20.6471 66.5058 16.2882C66.5058 7.30841 56.3562 0 43.8772 0C39.4302 0 35.1344 0.917648 31.4436 2.6437C28.1612 4.18404 25.4991 6.31428 23.6991 8.82689C22.1562 8.48823 20.568 8.32437 18.768 8.32437C14.2453 8.32437 10.01 9.56975 6.81839 11.8529C3.61167 14.1471 1.84192 17.2168 1.84192 20.505C1.84192 27.2345 9.4352 32.6966 18.768 32.6966H43.8923ZM4.86713 20.516C4.86713 14.9992 11.0991 10.5092 18.768 10.5092C20.689 10.5092 22.3226 10.7277 23.8957 11.2084C24.652 11.4378 25.5293 11.1866 25.8621 10.6403C28.9932 5.50589 36.0722 2.1958 43.8923 2.1958C54.7075 2.1958 63.4957 8.52101 63.4957 16.2992C63.4957 24.1429 54.7075 30.5227 43.8923 30.5227H18.768C11.0991 30.5227 4.86713 26.0328 4.86713 20.516Z" fill="white"/>
<path d="M19.5394 37.7219L15.8335 40.4967C15.2587 40.9227 15.2738 41.6219 15.8789 42.037C16.1663 42.2446 16.5444 42.3429 16.9226 42.3429C17.3158 42.3429 17.7091 42.2336 18.0116 42.0042L21.7175 39.2294C22.2923 38.8034 22.2772 38.1042 21.6721 37.6891C21.0822 37.274 20.1142 37.2849 19.5394 37.7219Z" fill="white"/>
<path d="M34.9528 37.7219L31.2469 40.4967C30.6722 40.9227 30.6873 41.6219 31.2923 42.037C31.5797 42.2446 31.9579 42.3429 32.336 42.3429C32.7293 42.3429 33.1226 42.2336 33.4251 42.0042L37.131 39.2294C37.7058 38.8034 37.6906 38.1042 37.0856 37.6891C36.4957 37.274 35.5276 37.2849 34.9528 37.7219Z" fill="white"/>
<path d="M50.3663 37.7219L46.6604 40.4967C46.0856 40.9227 46.1007 41.6219 46.7058 42.037C46.9932 42.2446 47.3713 42.3429 47.7495 42.3429C48.1428 42.3429 48.536 42.2336 48.8385 42.0042L52.5444 39.2294C53.1192 38.8034 53.1041 38.1042 52.4991 37.6891C51.9091 37.274 50.9411 37.2849 50.3663 37.7219Z" fill="white"/>
<path d="M67.8974 37.6891C67.3074 37.274 66.3394 37.2849 65.7646 37.7219L62.0587 40.4967C61.4839 40.9227 61.499 41.6219 62.1041 42.037C62.3915 42.2446 62.7696 42.3429 63.1478 42.3429C63.5562 42.3429 63.9495 42.2336 64.2369 42.0042L67.9427 39.2294C68.5175 38.8034 68.5024 38.1042 67.8974 37.6891Z" fill="white"/>
<path d="M4.12592 37.7219L0.420039 40.4967C-0.154751 40.9227 -0.139625 41.6219 0.465417 42.037C0.752812 42.2446 1.13096 42.3429 1.50911 42.3429C1.90239 42.3429 2.29567 42.2336 2.59819 42.0042L6.30407 39.2294C6.87886 38.8034 6.86374 38.1042 6.25869 37.6891C5.66878 37.274 4.70071 37.2849 4.12592 37.7219Z" fill="white"/>
<path d="M27.2537 47.4773L23.5478 50.1429C22.9579 50.5689 22.9579 51.2571 23.5478 51.6832C23.8503 51.8908 24.2285 52 24.6217 52C25.015 52 25.3932 51.8908 25.6806 51.6832L29.3864 49.0176C29.9764 48.5916 29.9764 47.9034 29.3864 47.4773C28.7965 47.0513 27.8436 47.0513 27.2537 47.4773Z" fill="white"/>
<path d="M42.6671 47.4773L38.9612 50.1429C38.3713 50.5689 38.3713 51.2571 38.9612 51.6832C39.2638 51.8908 39.6419 52 40.0352 52C40.4285 52 40.8066 51.8908 41.094 51.6832L44.7999 49.0176C45.3898 48.5916 45.3898 47.9034 44.7999 47.4773C44.21 47.0513 43.257 47.0513 42.6671 47.4773Z" fill="white"/>
<path d="M58.0806 47.4773L54.3747 50.1429C53.7848 50.5689 53.7848 51.2571 54.3747 51.6832C54.6772 51.8908 55.0554 52 55.4486 52C55.8419 52 56.2201 51.8908 56.5075 51.6832L60.2133 49.0176C60.8033 48.5916 60.8033 47.9034 60.2133 47.4773C59.6234 47.0513 58.6705 47.0513 58.0806 47.4773Z" fill="white"/>
<path d="M11.8402 47.4773L8.13433 50.1429C7.54442 50.5689 7.54442 51.2571 8.13433 51.6832C8.43685 51.8908 8.815 52 9.20828 52C9.60156 52 9.99484 51.8908 10.2671 51.6832L13.973 49.0176C14.5629 48.5916 14.5629 47.9034 13.973 47.4773C13.3831 47.0513 12.4301 47.0513 11.8402 47.4773Z" fill="white"/>
</svg>
