<svg width="67" height="60" viewBox="0 0 67 60" fill="none" xmlns="http://www.w3.org/2000/svg">
<g clip-path="url(#clip0_33_9)">
<path d="M27.9043 37.4959C28.2613 37.4959 28.6183 37.3729 28.8792 37.127L31.6668 34.5938C32.2161 34.8274 32.834 34.9627 33.4794 34.9627C35.8001 34.9627 37.6952 33.278 37.6952 31.1997C37.6952 30.634 37.5441 30.1052 37.2969 29.638C37.2969 29.638 37.3107 29.6379 37.3107 29.6257L40.5377 26.6866V27.449C40.5377 28.1254 41.1556 28.6788 41.9109 28.6788C42.6661 28.6788 43.2841 28.1254 43.2841 27.449V23.6984C43.2841 23.022 42.6799 22.4686 41.9109 22.4686H37.6952C36.9399 22.4686 36.322 23.022 36.322 23.6984C36.322 24.3747 36.9399 24.9281 37.6952 24.9281H38.6152L35.3607 27.904C35.3607 27.904 35.3607 27.904 35.347 27.9163C34.784 27.6704 34.1523 27.5351 33.4932 27.5351C31.1725 27.5351 29.2775 29.183 29.2775 31.1997C29.2775 31.8023 29.4422 32.368 29.7169 32.8721L26.9293 35.4054C26.3937 35.885 26.4075 36.672 26.943 37.1393C27.2039 37.373 27.561 37.4959 27.9043 37.4959ZM33.4932 29.9947C34.2896 29.9947 34.9625 30.5481 34.9625 31.1998C34.9625 31.9377 34.3171 32.5033 33.4932 32.5033C32.6693 32.5033 32.0239 31.9254 32.0239 31.1998C32.0239 30.5481 32.6967 29.9947 33.4932 29.9947Z" fill="white"/>
<path d="M40.1256 8.14241C41.0045 5.76904 40.1943 3.08822 37.956 1.47728C35.4705 -0.490292 31.6393 -0.490289 29.0439 1.46498C26.8056 3.07593 25.9817 5.76904 26.8605 8.14241C13.7877 10.8232 4.0105 21.2759 4.0105 33.7331C4.0105 48.2193 17.2344 60.0001 33.4931 60.0001C49.7517 60.0001 62.9894 48.2193 62.9894 33.7331C62.9894 21.2758 53.1985 10.8231 40.1256 8.14241ZM30.7741 3.37106C30.7879 3.35877 30.8016 3.35876 30.8016 3.34647C32.3808 2.15363 34.6878 2.14133 36.1571 3.32187C36.1708 3.33417 36.1983 3.34647 36.212 3.37106C37.6539 4.40404 38.107 6.19944 37.3655 7.68741C36.1021 7.53985 34.7976 7.46606 33.4931 7.46606C32.1885 7.46606 30.884 7.53985 29.6206 7.68741C28.8654 6.19944 29.3185 4.40391 30.7741 3.37106ZM33.4931 57.5405C22.7409 57.5405 13.4444 51.8592 9.20119 43.6815H16.5341H50.4383H57.7712C53.5418 51.8592 44.2452 57.5405 33.4931 57.5405ZM21.6286 21.2758C28.5084 16.197 38.4915 16.197 45.3712 21.2758C51.9214 26.1086 53.6654 34.397 49.6419 41.222H17.3443C13.3345 34.3972 15.0647 26.1086 21.6286 21.2758ZM58.7737 41.2343H52.6904C54.352 37.8649 54.915 34.1265 54.2421 30.4988C53.4456 26.1332 50.9052 22.1858 47.1152 19.382C39.2193 13.5654 27.7806 13.5654 19.8847 19.382C16.0946 22.1858 13.5542 26.1332 12.7578 30.4988C12.0849 34.1265 12.6479 37.8649 14.3095 41.2343H8.10263C7.22378 38.8732 6.74316 36.3646 6.74316 33.7453C6.75689 20.6117 18.7449 9.9254 33.4931 9.9254C48.2412 9.9254 60.243 20.5995 60.243 33.733C60.243 36.3523 59.7624 38.8732 58.8835 41.2343C58.8423 41.2343 58.8149 41.2343 58.7737 41.2343Z" fill="white"/>
</g>
<defs>
<clipPath id="clip0_33_9">
<rect width="67" height="60" fill="white"/>
</clipPath>
</defs>
</svg>
