<svg width="64" height="60" viewBox="0 0 64 60" fill="none" xmlns="http://www.w3.org/2000/svg">
<mask id="mask0_1_46" style="mask-type:alpha" maskUnits="userSpaceOnUse" x="0" y="0" width="64" height="60">
<rect width="64" height="60" fill="#D9D9D9"/>
</mask>
<g mask="url(#mask0_1_46)">
<path d="M32.0001 52.5C28.3112 52.5 25.1667 51.2812 22.5667 48.8438C19.9667 46.4062 18.6667 43.4583 18.6667 40C18.6667 38 19.1334 36.1354 20.0667 34.4062C21.0001 32.6771 22.3112 31.2083 24.0001 30V15C24.0001 12.9167 24.7779 11.1458 26.3334 9.6875C27.889 8.22917 29.7779 7.5 32.0001 7.5C34.2223 7.5 36.1112 8.22917 37.6667 9.6875C39.2223 11.1458 40.0001 12.9167 40.0001 15V30C41.689 31.2083 43.0001 32.6771 43.9334 34.4062C44.8667 36.1354 45.3334 38 45.3334 40C45.3334 43.4583 44.0334 46.4062 41.4334 48.8438C38.8334 51.2812 35.689 52.5 32.0001 52.5ZM32.0001 47.5C34.2223 47.5 36.1112 46.7708 37.6667 45.3125C39.2223 43.8542 40.0001 42.0833 40.0001 40C40.0001 38.7917 39.7223 37.6667 39.1667 36.625C38.6112 35.5833 37.8223 34.7083 36.8001 34L34.6667 32.5V15C34.6667 14.2917 34.4112 13.6979 33.9001 13.2188C33.389 12.7396 32.7556 12.5 32.0001 12.5C31.2445 12.5 30.6112 12.7396 30.1001 13.2188C29.589 13.6979 29.3334 14.2917 29.3334 15V32.5L27.2001 34C26.1779 34.7083 25.389 35.5833 24.8334 36.625C24.2779 37.6667 24.0001 38.7917 24.0001 40C24.0001 42.0833 24.7779 43.8542 26.3334 45.3125C27.889 46.7708 29.7779 47.5 32.0001 47.5Z" fill="#F2F1F6"/>
</g>
</svg>
