<svg width="60" height="62" viewBox="0 0 60 62" fill="none" xmlns="http://www.w3.org/2000/svg">
<path d="M49.0125 42.8963C48.45 42.8963 47.925 42.6638 47.55 42.16C46.9125 41.3075 47.025 40.1063 47.85 39.4475C49.65 37.975 51.2625 36.2313 52.6125 34.3325C53.7 32.86 53.7 30.845 52.6125 29.3338C47.475 22.2038 39.6375 18.135 31.05 18.135C27.525 18.135 24.075 18.8325 20.85 20.1888C19.875 20.615 18.7875 20.1113 18.4125 19.1425C18.0375 18.135 18.4875 17.0113 19.425 16.6238C23.1 15.0738 27.0375 14.26 31.05 14.26C40.6875 14.26 49.875 19.0263 55.6125 27.0475C57.675 29.915 57.675 33.79 55.6125 36.6575C54.0375 38.8275 52.2375 40.765 50.175 42.47C49.8375 42.78 49.425 42.8963 49.0125 42.8963ZM31.05 49.445C21.4125 49.445 12.225 44.6788 6.48755 36.6575C4.42505 33.79 4.42505 29.915 6.48755 27.0475C7.72505 25.3038 9.18755 23.6763 10.7625 22.2425C11.55 21.545 12.7125 21.6225 13.425 22.3975C14.1 23.2113 14.025 24.4125 13.275 25.1488C11.8875 26.4275 10.6125 27.8225 9.52505 29.3725C8.43755 30.845 8.43755 32.86 9.52505 34.3713C14.625 41.4625 22.4625 45.57 31.05 45.57C34.575 45.57 38.025 44.8725 41.25 43.4775C42.225 43.0513 43.3125 43.555 43.6875 44.5238C44.1 45.5313 43.6125 46.655 42.675 47.0425C39 48.6313 35.1 49.445 31.05 49.445Z" fill="white"/>
<path d="M30.7875 41.23C25.725 41.23 21.6 36.9675 21.6 31.7362C21.6 30.6512 22.425 29.7988 23.475 29.7988C24.525 29.7988 25.35 30.6512 25.35 31.7362C25.35 34.8362 27.7875 37.355 30.7875 37.355C32.0625 37.355 33.2625 36.9288 34.2375 36.0763C35.025 35.3788 36.225 35.5338 36.8625 36.3475C37.5375 37.1613 37.3875 38.4012 36.6 39.06C34.9875 40.4937 32.925 41.23 30.7875 41.23ZM38.1 33.7125C37.05 33.7125 36.225 32.86 36.225 31.775C36.225 28.675 33.7875 26.1562 30.7875 26.1562C29.5875 26.1562 28.425 26.5438 27.45 27.3188C27.256 27.4755 27.0339 27.5908 26.7965 27.6582C26.5591 27.7255 26.3111 27.7435 26.067 27.7111C25.8228 27.6786 25.5873 27.5964 25.3741 27.4692C25.1609 27.342 24.9742 27.1723 24.825 26.97C24.1875 26.1175 24.3375 24.9163 25.1625 24.2575C26.775 22.94 28.725 22.2812 30.7875 22.2812C35.85 22.2812 39.975 26.5437 39.975 31.775C39.975 32.8212 39.15 33.7125 38.1 33.7125Z" fill="white"/>
<path d="M47.775 53.32C47.25 53.32 46.7625 53.0875 46.3875 52.6613L11.5875 12.7875C10.9125 11.9738 10.95 10.7725 11.7375 10.0363C12.525 9.33876 13.6875 9.37751 14.4 10.1913L49.1625 50.1038C49.8375 50.9175 49.8 52.1188 49.0125 52.855C48.6375 53.165 48.225 53.32 47.775 53.32Z" fill="white"/>
</svg>
