<svg width="61" height="48" viewBox="0 0 61 48" fill="none" xmlns="http://www.w3.org/2000/svg">
<g clip-path="url(#clip0_32_2)">
<path d="M14.2423 34.2637C13.443 34.2637 12.7977 33.4293 12.7977 32.3958C12.7977 31.3624 13.443 30.528 14.2423 30.528H39.7433C39.8476 30.528 39.9518 30.5408 40.0511 30.5729C40.9645 30.7526 41.8184 31.0864 42.5828 31.6192C43.4268 32.2097 44.1466 33.0249 44.7026 34.1161C46.6138 37.8583 46.3308 41.3308 44.9806 43.8984C44.1019 45.5737 42.7616 46.8189 41.2822 47.4737C39.793 48.1348 38.1449 48.199 36.6556 47.4929C34.4019 46.4274 32.575 43.7122 32.307 38.7954C32.2524 37.7684 32.853 36.8826 33.6473 36.812C34.4416 36.7414 35.1266 37.5181 35.1812 38.5451C35.355 41.716 36.3776 43.3977 37.6335 43.9882C38.4824 44.3862 39.4554 44.3349 40.3539 43.9369C41.2673 43.5325 42.0815 42.7879 42.5977 41.8058C43.3374 40.4001 43.4466 38.4167 42.2949 36.1637C42.012 35.6117 41.6446 35.1944 41.2127 34.8928C40.761 34.5782 40.2348 34.3728 39.6589 34.2573H14.2423V34.2637ZM7.64982 17.4656C6.85059 17.4656 6.20524 16.6312 6.20524 15.5978C6.20524 14.5643 6.85059 13.7299 7.64982 13.7299H33.0715C33.6523 13.6143 34.1785 13.4089 34.6302 13.0944C35.0621 12.7927 35.4294 12.3755 35.7124 11.8235C36.8641 9.57048 36.7499 7.58706 36.0152 6.18134C35.4989 5.19926 34.6848 4.45467 33.7714 4.05029C32.8729 3.65232 31.8949 3.60097 31.051 3.99894C29.8 4.58947 28.7725 6.2712 28.5987 9.4421C28.5441 10.4691 27.8591 11.2458 27.0648 11.1752C26.2705 11.1046 25.6698 10.2188 25.7244 9.19177C25.9925 4.27495 27.8193 1.55978 30.0731 0.494257C31.5623 -0.205396 33.2105 -0.141207 34.6997 0.513513C36.179 1.16823 37.5194 2.41991 38.398 4.0888C39.7483 6.65633 40.0313 10.1289 38.12 13.8711C37.564 14.9623 36.8442 15.7775 36.0003 16.368C35.2358 16.9008 34.382 17.2346 33.4686 17.4143C33.3693 17.44 33.2651 17.4592 33.1608 17.4592H7.64982V17.4656ZM1.44458 25.8679C0.645345 25.8679 0 25.027 0 24C0 22.9666 0.645345 22.1321 1.44458 22.1321H54.5962C55.177 22.0166 55.7032 21.8112 56.15 21.4967C56.5819 21.195 56.9492 20.7778 57.2322 20.2257C58.3839 17.9727 58.2697 15.9893 57.535 14.5836C57.0187 13.6015 56.2046 12.8569 55.2912 12.4525C54.3927 12.0546 53.4147 12.0032 52.5708 12.4012C51.3198 12.9917 50.2922 14.6734 50.1185 17.8444C50.0639 18.8714 49.3788 19.648 48.5846 19.5774C47.7903 19.5068 47.1896 18.621 47.2442 17.594C47.5123 12.6772 49.3391 9.96203 51.5929 8.8965C53.0821 8.19685 54.7302 8.26104 56.2195 8.91576C57.6988 9.57048 59.0391 10.8222 59.9178 12.491C61.2681 15.0586 61.551 18.5312 59.6398 22.2733C59.0838 23.3645 58.364 24.1797 57.5201 24.7703C56.7556 25.303 55.9018 25.6368 54.9884 25.8165C54.8891 25.8422 54.7848 25.8615 54.6806 25.8615H1.44458V25.8679Z" fill="white"/>
</g>
<defs>
<clipPath id="clip0_32_2">
<rect width="61" height="48" fill="white"/>
</clipPath>
</defs>
</svg>
