<svg width="55" height="60" viewBox="0 0 55 60" fill="none" xmlns="http://www.w3.org/2000/svg">
<path d="M30.6668 36.9723C30.7134 36.1186 31.6914 36.4032 31.6914 36.4032L39.3057 37.9921L55 44.087C55 41.0988 54.5343 40.7668 53.8357 40.2451L31.4352 23.8814C31.4352 23.8814 30.8298 16.3874 30.8298 9.77075C30.8298 6.71146 29.3861 0 27.5 0C25.6139 0 24.1702 6.80632 24.1702 9.77075C24.1702 16.0316 23.5648 23.8814 23.5648 23.8814L1.16427 40.2451C0.30271 40.8617 0 41.2174 0 44.087L15.6943 37.9921L23.2854 36.4269C23.2854 36.4269 24.2633 36.1186 24.3099 36.996C24.3565 37.8498 24.1702 45.6285 25.0318 49.7549C25.1482 50.3004 24.729 50.3478 24.4496 50.6798L18.0694 54.7826C17.8599 55.0198 17.7667 55.6838 17.7667 55.6838L17.6503 58.0079L25.9865 56.0158L27.4534 60L28.9204 56.0158L37.2566 58.0079L37.1401 55.6838C37.1634 55.6838 37.047 55.0198 36.8374 54.7826L30.4572 50.6798C30.1778 50.3478 29.7587 50.3004 29.8751 49.7549C30.8065 45.6047 30.6202 37.8498 30.6668 36.9723Z" fill="#00090F"/>
</svg>
